<?xml version="1.0" encoding="UTF-8"?>
<svg version="1.1" xmlns="http://www.w3.org/2000/svg" width="1024" height="1024">
<path d="M0 0 C4.92593989 -0.03617836 9.85190868 -0.0629722 14.77791113 -0.08901662 C17.96162235 -0.11056033 21.14486965 -0.14798554 24.32841569 -0.18626219 C26.16632497 -0.19629302 28.00423893 -0.20551665 29.84215719 -0.21374041 C31.06005246 -0.23642479 31.06005246 -0.23642479 32.30255169 -0.25956744 C37.65241839 -0.25859238 37.65241839 -0.25859238 40.12281114 1.60177034 C40.44736315 2.09064572 40.77191516 2.5795211 41.10630208 3.08321089 C20.35158553 24.72110687 20.35158553 24.72110687 5.16277486 25.21019453 C3.64111357 25.21610719 2.1194248 25.21655876 0.59775716 25.21260542 C-0.24403684 25.21433508 -1.08583085 25.21606474 -1.95313376 25.21784681 C-4.76016456 25.222208 -7.56713505 25.21924968 -10.37416667 25.21602339 C-12.3800364 25.21704044 -14.38590599 25.21838071 -16.39177531 25.22002119 C-21.82114932 25.22273737 -27.250495 25.2182176 -32.67986506 25.21178144 C-36.09004125 25.2082016 -39.5002132 25.20658938 -42.91039103 25.20552534 C-75.01191845 25.1931236 -107.10729275 24.98291123 -139.20619792 24.58321089 C-166.49818685 24.24483066 -193.78680511 23.95821089 -221.08119792 23.95821089 C-221.81246016 23.95821089 -222.54372241 23.95821089 -223.29714411 23.95821089 C-252.5027761 23.964706 -281.69576143 24.41281371 -310.89369792 25.08321089 C-310.89369792 28.54496694 -307.69313995 30.63704271 -305.39369792 33.02071089 C-280.71891646 59.28203877 -273.76707711 89.85592648 -274.6061613 125.22496504 C-275.96546221 164.41933054 -296.91463929 206.24847477 -316.84340495 239.19136518 C-320.94441375 246.02025577 -324.66263489 253.04824385 -328.39369792 260.08321089 C-332.94541928 268.66018295 -337.55179903 277.18160993 -342.57338542 285.49532026 C-384.73756056 355.33452672 -426.20086361 449.9429902 -427.26869792 539.70821089 C-427.26748942 540.53637312 -427.26628093 541.36453535 -427.26503581 542.21779341 C-427.13330718 575.64072068 -418.73390906 609.02110019 -396.89369792 635.08321089 C-396.34455729 635.74578901 -395.79541667 636.40836714 -395.22963542 637.09102339 C-370.88810987 663.83072879 -325.10958428 668.64553871 -291.49683017 670.24483389 C-287.98678272 670.3793144 -284.4767008 670.49560771 -280.9657194 670.60298628 C-280.31059469 670.62354542 -279.65546998 670.64410457 -278.98049301 670.66528672 C-273.84636101 670.8260908 -268.71191499 670.97420317 -263.57729167 671.11836714 C-262.79971908 671.14044021 -262.02214649 671.16251328 -261.2210111 671.18525523 C-232.27040478 672.00228514 -203.32754604 672.2965018 -174.36635417 672.39180464 C-173.35811453 672.39528677 -172.34987489 672.39876891 -171.31108254 672.40235656 C-152.64275302 672.46662905 -133.97437952 672.50812963 -115.3059603 672.53485489 C-104.83193297 672.5499452 -94.3580022 672.5734298 -83.88403714 672.61325312 C-78.01124167 672.63490428 -72.13863628 672.64310145 -66.26580364 672.64086038 C-62.66673218 672.64251824 -59.06778914 672.65649694 -55.46876353 672.67407316 C-53.80055435 672.67969301 -52.13231884 672.68013933 -50.46410769 672.67513555 C-48.19787342 672.6690443 -45.93245871 672.68112776 -43.66629618 672.69794172 C-42.39869991 672.69995305 -41.13110364 672.70196438 -39.82509536 672.70403665 C-38.8577342 672.82916415 -37.89037305 672.95429165 -36.89369792 673.08321089 C-34.89369792 676.08321089 -34.89369792 676.08321089 -35.25697917 678.62227339 C-39.4012833 692.09552552 -46.51536819 710.21322192 -58.89369792 718.08321089 C-73.18150707 720.30411386 -89.06459722 718.07833842 -103.43654841 716.7865724 C-124.27274309 714.95210897 -144.98693125 714.68385007 -165.89058512 714.81892866 C-169.39844218 714.83799177 -172.90624677 714.84204301 -176.41414851 714.8457765 C-204.52080173 714.87849703 -232.63090997 715.27958361 -260.70213908 716.76254743 C-270.76103343 717.26900249 -280.82408393 717.281829 -290.89369792 717.27071089 C-291.91462535 717.27010664 -292.93555278 717.26950239 -293.9874174 717.26887983 C-329.71535116 717.2117625 -367.5270715 716.01082891 -399.89369792 699.08321089 C-400.96748698 698.54953901 -402.04127604 698.01586714 -403.14760417 697.46602339 C-422.42315474 687.58929499 -438.9841677 672.82818759 -449.89369792 654.08321089 C-450.24045573 653.5013603 -450.58721354 652.91950971 -450.94447917 652.32002729 C-468.72326516 622.18875439 -472.1210965 589.31770908 -472.14369792 555.08321089 C-472.144705 554.02207075 -472.14571208 552.96093061 -472.14674968 551.86763471 C-472.13558274 534.41437342 -471.36190219 517.38191844 -468.89369792 500.08321089 C-468.75447917 499.06614057 -468.61526042 498.04907026 -468.47182292 497.00117964 C-461.9228054 450.24847127 -445.70544875 406.45138175 -426.68666667 363.49336714 C-426.36615336 362.76842054 -426.04564006 362.04347395 -425.71541423 361.29655927 C-422.97872203 355.16262764 -419.99680114 349.164715 -416.94057292 343.18477339 C-415.51906514 340.3702967 -414.16275543 337.53448532 -412.84682292 334.66914839 C-405.35629955 318.36817801 -396.56883928 302.82457559 -387.04213542 287.63008589 C-383.45252772 281.79566011 -380.1698896 275.77572219 -376.81825846 269.80293745 C-373.52030777 263.93375981 -370.15804515 258.1129519 -366.70619792 252.33321089 C-361.8679049 244.19546272 -357.47747117 235.84780874 -353.12611979 227.4420976 C-351.94827725 225.18767712 -350.74685389 222.94803636 -349.53432292 220.71211714 C-318.06217555 164.36657979 -318.06217555 164.36657979 -311.89369792 102.08321089 C-312.08190104 100.90629682 -312.27010417 99.72938276 -312.46401042 98.51680464 C-313.93100714 90.16166811 -316.19906692 82.71510537 -319.89369792 75.08321089 C-320.46410807 73.89985151 -320.46410807 73.89985151 -321.04604167 72.69258589 C-329.17502169 57.0367725 -341.68827164 46.8244677 -358.35146159 41.26289839 C-365.09760178 39.23177654 -371.30613891 38.60536189 -378.33119792 38.70821089 C-379.84387248 38.72343794 -379.84387248 38.72343794 -381.38710612 38.7389726 C-396.21404245 39.04799188 -409.75676164 43.28656307 -420.72963542 53.68086714 C-432.63102191 66.8926951 -438.0303889 80.36482098 -438.89369792 98.08321089 C-438.94783854 98.86438276 -439.00197917 99.64555464 -439.05776042 100.45039839 C-439.5477181 111.54125857 -432.98619381 121.90225277 -426.51869792 130.45821089 C-418.78361654 138.19329227 -407.95039985 143.69525643 -396.89369792 144.08321089 C-384.95923006 142.99215546 -374.50504101 139.16788339 -366.20229167 130.27071089 C-360.01237995 122.57598354 -357.62048077 114.21389772 -356.28822917 104.55196089 C-355.89369792 102.08321089 -355.89369792 102.08321089 -354.89369792 100.08321089 C-355.95330729 100.09481245 -357.01291667 100.10641401 -358.10463542 100.11836714 C-359.49265449 100.12774564 -360.88067547 100.13684578 -362.26869792 100.14571089 C-362.96736979 100.15408979 -363.66604167 100.1624687 -364.38588542 100.17110151 C-369.66713542 100.19649214 -369.66713542 100.19649214 -371.89369792 99.08321089 C-371.37807292 100.03196089 -370.86244792 100.98071089 -370.33119792 101.95821089 C-368.29152494 106.74658602 -368.70241998 111.09473452 -369.89369792 116.08321089 C-373.11067105 122.774515 -378.79082802 126.79926472 -385.51869792 129.58321089 C-392.91712834 131.00148707 -401.88012299 129.67859479 -408.39369792 125.89571089 C-416.13482778 120.22661792 -419.92062379 113.4293515 -421.89369792 104.08321089 C-422.92800551 92.67191559 -420.14512699 82.08752993 -412.89369792 73.08321089 C-405.90765309 65.78395157 -397.7694637 59.48584582 -387.42494792 58.88008589 C-371.78604171 58.57061655 -357.39828147 61.76260258 -345.51869792 72.77071089 C-334.08467968 85.29253213 -330.33737744 100.5249499 -330.89369792 117.08321089 C-333.60909893 140.11563016 -344.78976788 159.73284958 -362.87026042 174.04024214 C-375.49354176 182.56992707 -390.91619725 186.1353759 -406.00111979 183.74995893 C-425.20607292 179.87589962 -444.69779852 169.33262953 -456.21645182 153.23457807 C-459.02000549 148.98413417 -461.49341017 144.57053724 -463.89369792 140.08321089 C-464.39643229 139.17442182 -464.89916667 138.26563276 -465.41713542 137.32930464 C-477.11449589 115.24610592 -477.35314044 90.38562771 -470.22817057 66.88838667 C-464.65997843 49.82914832 -455.78181347 34.66201166 -442.89369792 22.08321089 C-442.23369792 22.08321089 -441.57369792 22.08321089 -440.89369792 22.08321089 C-440.39869792 20.59821089 -440.39869792 20.59821089 -439.89369792 19.08321089 C-437.78044915 17.34911245 -435.69338323 15.76581484 -433.45619792 14.20821089 C-432.8216569 13.76275923 -432.18711589 13.31730757 -431.53334635 12.85835737 C-418.18100667 3.64362371 -406.22197904 0.62838513 -390.11453837 0.68448347 C-388.52120377 0.67903729 -386.92787319 0.67228293 -385.33454907 0.66434157 C-380.97473791 0.6463704 -376.61509758 0.64686696 -372.25525814 0.65047103 C-367.5434119 0.65109641 -362.83162221 0.6344571 -358.11980265 0.61995405 C-349.95094016 0.59716681 -341.78212029 0.58528159 -333.61322802 0.58082479 C-321.74697144 0.57433737 -309.88079085 0.55134448 -298.01456498 0.5244815 C-278.6874215 0.48118253 -259.36028122 0.45124885 -240.03310221 0.42964643 C-221.38855426 0.40877941 -202.74403376 0.38158172 -184.09950846 0.34566206 C-182.38586877 0.34236382 -182.38586877 0.34236382 -180.63761009 0.33899895 C-174.89882374 0.3279172 -169.16003763 0.31672018 -163.4212516 0.30548245 C-135.05897449 0.2501147 -106.69668942 0.19922484 -78.334387 0.15872663 C-77.32726909 0.15726383 -76.32015118 0.15580103 -75.28251455 0.1542939 C-64.64311897 0.13893956 -54.00373098 0.12611299 -43.3643257 0.1201877 C-39.78542208 0.117988 -36.2065186 0.11561913 -32.62761515 0.11314863 C-31.76901447 0.11259837 -30.91041378 0.11204811 -30.02579489 0.11148118 C-20.01688577 0.10415928 -10.00864161 0.07460141 0 0 Z " fill="#FFFFFF" transform="translate(582.8936979174614,117.91678911447525)"/>
<path d="M0 0 C1.02273514 0.02756882 1.02273514 0.02756882 2.06613159 0.05569458 C45.92888382 1.34913506 88.08849816 19.08185589 118.75 50.75 C125.72612466 58.25352927 132.18894882 66.13469273 137.75 74.75 C138.24757813 75.50023437 138.74515625 76.25046875 139.2578125 77.0234375 C143.64894192 83.94348962 146.79134634 91.33753941 149.94921875 98.87353516 C150.63265751 100.47503221 151.35892977 102.05813692 152.09375 103.63671875 C164.8769758 131.70245488 167.52645129 166.67577739 161.75 196.75 C161.60997559 197.51054687 161.46995117 198.27109375 161.32568359 199.0546875 C156.49623636 224.49077929 145.59605989 247.40188197 129.75 267.75 C128.72755326 269.18635289 127.70652335 270.62371636 126.6875 272.0625 C123.53088651 276.25124869 119.77508086 279.41984763 115.75 282.75 C114.94433594 283.47703125 114.13867188 284.2040625 113.30859375 284.953125 C89.40412835 306.03529932 59.77320784 317.22985626 28.75 322.75 C27.85925781 322.94335938 26.96851563 323.13671875 26.05078125 323.3359375 C-13.70837112 331.73833111 -56.58276811 318.92331661 -90.25 297.75 C-97.28370807 292.52495972 -103.85185881 286.72760609 -110.25 280.75 C-111.06339844 279.99074219 -111.87679687 279.23148437 -112.71484375 278.44921875 C-140.19078705 251.92820555 -158.37782101 212.71173292 -159.20751953 174.35742188 C-159.22153809 173.49697266 -159.23555664 172.63652344 -159.25 171.75 C-159.27046387 170.63173828 -159.29092773 169.51347656 -159.31201172 168.36132812 C-159.37310755 164.44917525 -159.40978209 160.53752689 -159.4375 156.625 C-159.45071289 155.37412598 -159.46392578 154.12325195 -159.47753906 152.83447266 C-159.48666697 141.2526844 -158.16591866 129.95244879 -155.1875 118.75 C-154.98125 117.97092285 -154.775 117.1918457 -154.5625 116.38916016 C-142.40061048 72.85200058 -112.99586627 38.33311457 -74.2097168 16.00341797 C-51.25046892 3.15606015 -25.94701399 -0.7323261 0 0 Z M6.75 23.75 C6.75 25.07 6.75 26.39 6.75 27.75 C6.09 27.75 5.43 27.75 4.75 27.75 C0.80442851 42.87819862 -2.81375461 57.73766437 -4.36254883 73.33398438 C-4.50213013 74.7174707 -4.50213013 74.7174707 -4.64453125 76.12890625 C-4.71518799 76.9288501 -4.78584473 77.72879395 -4.85864258 78.55297852 C-5.29240793 80.98807172 -5.88432348 82.68475389 -7.25 84.75 C-10.5078125 85.578125 -10.5078125 85.578125 -14.375 86 C-15.65632813 86.14953125 -16.93765625 86.2990625 -18.2578125 86.453125 C-19.24523437 86.55109375 -20.23265625 86.6490625 -21.25 86.75 C-24.13764219 80.86019157 -25.19842613 75.2055396 -26.1875 68.75 C-27.68795679 59.53906542 -29.66643766 50.71244634 -32.25 41.75 C-32.9386796 39.08813727 -33.59597334 36.42060885 -34.25 33.75 C-40.50796672 33.5527045 -45.80564473 34.01886936 -51.8125 35.75 C-52.5768335 35.96712646 -53.34116699 36.18425293 -54.12866211 36.40795898 C-59.74475846 38.09689314 -65.04347695 40.24312337 -70.3125 42.8125 C-70.99707275 43.14056641 -71.68164551 43.46863281 -72.38696289 43.80664062 C-75.90172568 45.53113325 -75.90172568 45.53113325 -78.08056641 48.62597656 C-78.30467017 51.43534651 -77.54613402 52.4171599 -75.92578125 54.69921875 C-75.13337036 55.83508423 -75.13337036 55.83508423 -74.32495117 56.99389648 C-73.74334229 57.80028564 -73.1617334 58.6066748 -72.5625 59.4375 C-71.97251221 60.27676025 -71.38252441 61.11602051 -70.7746582 61.98071289 C-68.94473838 64.57894017 -67.09835883 67.16486892 -65.25 69.75 C-64.16286065 71.28560819 -63.07686472 72.8220267 -61.9921875 74.359375 C-61.22612183 75.44424194 -61.22612183 75.44424194 -60.44458008 76.55102539 C-59.4462259 77.96631738 -58.44865677 79.3821635 -57.4519043 80.79858398 C-56.97406494 81.47735596 -56.49622559 82.15612793 -56.00390625 82.85546875 C-55.54258301 83.5107959 -55.08125977 84.16612305 -54.60595703 84.84130859 C-53.30432025 86.67353696 -51.98071064 88.48788499 -50.65234375 90.30078125 C-49.52505859 91.88439453 -49.52505859 91.88439453 -48.375 93.5 C-47.38886719 94.85351562 -47.38886719 94.85351562 -46.3828125 96.234375 C-45.25 98.75 -45.25 98.75 -45.921875 101.47265625 C-47.25 103.75 -47.25 103.75 -49.375 105.4375 C-52.25 105.75 -52.25 105.75 -55.5 103.5 C-56.52287109 102.65308594 -56.52287109 102.65308594 -57.56640625 101.7890625 C-61.02097869 99.16419087 -64.68327672 97.04048431 -68.4375 94.875 C-73.63514049 91.86583972 -78.78859919 88.81893277 -83.875 85.625 C-88.63539189 82.69552807 -93.43226601 79.84937378 -98.3125 77.125 C-98.94430176 76.75745605 -99.57610352 76.38991211 -100.22705078 76.01123047 C-103.65171006 74.10600207 -103.65171006 74.10600207 -107.44921875 74.19140625 C-109.87174372 76.28812526 -111.33295776 78.580403 -113 81.3125 C-113.61359375 82.30378906 -114.2271875 83.29507813 -114.859375 84.31640625 C-116.33268982 86.42755814 -116.33268982 86.42755814 -116.25 87.75 C-115.37472656 88.01167969 -114.49945312 88.27335937 -113.59765625 88.54296875 C-110.26909864 89.74311379 -107.66833485 91.16855459 -104.6875 93.0625 C-103.55231232 93.77770733 -102.41687693 94.49252158 -101.28125 95.20703125 C-100.65089844 95.60615723 -100.02054688 96.0052832 -99.37109375 96.41650391 C-96.97571101 97.92244089 -94.56717117 99.4057881 -92.15625 100.88671875 C-82.73758309 106.67552158 -73.37143269 112.49908029 -64.25 118.75 C-64.57007259 125.47152449 -65.65044223 131.5464599 -70.25 136.75 C-73.82878948 137.7824888 -76.40734198 137.74748129 -80.00512695 136.88549805 C-80.91990311 136.67164963 -81.83467926 136.45780121 -82.7771759 136.23747253 C-83.75434067 135.99797379 -84.73150543 135.75847504 -85.73828125 135.51171875 C-87.26403023 135.15047661 -87.26403023 135.15047661 -88.82060242 134.78193665 C-92.07028658 134.0100882 -95.31632525 133.223963 -98.5625 132.4375 C-100.7361056 131.91898814 -102.9099317 131.40139974 -105.08398438 130.88476562 C-113.48372561 128.88363271 -121.87611293 126.85686678 -130.25 124.75 C-130.25 124.09 -130.25 123.43 -130.25 122.75 C-130.91 122.75 -131.57 122.75 -132.25 122.75 C-132.58 123.884375 -132.91 125.01875 -133.25 126.1875 C-133.435625 126.82558594 -133.62125 127.46367187 -133.8125 128.12109375 C-134.22982361 130.62876149 -134.29334005 132.87789386 -134.27734375 135.41430664 C-134.273396 136.22589737 -134.26944824 137.0374881 -134.26538086 137.87367249 C-134.26030518 138.49286057 -134.25522949 139.11204865 -134.25 139.75 C-124.97090998 142.35932904 -115.6827647 144.9234019 -106.35546875 147.35546875 C-105.13127731 147.67488937 -105.13127731 147.67488937 -103.88235474 148.00076294 C-100.54676251 148.86993691 -97.21070951 149.73729462 -93.8737793 150.60131836 C-91.38775728 151.24568425 -88.90280542 151.8940493 -86.41796875 152.54296875 C-85.66903854 152.7356987 -84.92010834 152.92842865 -84.14848328 153.1269989 C-73.99642838 155.78556714 -73.99642838 155.78556714 -72.01953125 158.33984375 C-70.86766876 161.94745368 -70.39027425 165.56048961 -69.9375 169.3125 C-69.82599609 170.08013672 -69.71449219 170.84777344 -69.59960938 171.63867188 C-68.90538387 177.286024 -68.90538387 177.286024 -70.474823 179.39904785 C-72.49799756 180.93873207 -74.13385879 181.54904542 -76.57861328 182.23632812 C-77.88610031 182.61186829 -77.88610031 182.61186829 -79.22000122 182.99499512 C-80.16060394 183.25445923 -81.10120667 183.51392334 -82.0703125 183.78125 C-83.04354462 184.05843872 -84.01677673 184.33562744 -85.01950073 184.62121582 C-88.13545071 185.50679406 -91.25499113 186.37884119 -94.375 187.25 C-97.47276788 188.12384075 -100.5697262 189.00047251 -103.66622925 189.87878418 C-105.59202272 190.42405817 -107.5186752 190.96631073 -109.44631958 191.50500488 C-115.10580122 193.09601611 -120.69162568 194.83501294 -126.25 196.75 C-124.79801013 209.28861202 -121.11553012 222.53009706 -115.25 233.75 C-109.3021272 232.13768407 -104.33584039 229.08925219 -99.0625 226 C-97.17232382 224.90547456 -95.28170376 223.81171527 -93.390625 222.71875 C-92.49408203 222.19925781 -91.59753906 221.67976562 -90.67382812 221.14453125 C-87.11074742 219.09453961 -83.50375104 217.13380664 -79.875 215.203125 C-77.75454304 214.02930061 -75.69136264 212.81107823 -73.625 211.546875 C-72.99327881 211.16692383 -72.36155762 210.78697266 -71.71069336 210.39550781 C-70.4716049 209.64775179 -69.2401428 208.88716711 -68.01782227 208.11230469 C-66.31640625 207.09375 -66.31640625 207.09375 -63.25 205.75 C-59.31884075 206.82213434 -57.67130505 209.60230343 -55.25 212.75 C-54.59 213.08 -53.93 213.41 -53.25 213.75 C-54.89415549 217.83577563 -57.81792608 220.68452511 -60.8125 223.8125 C-64.59402598 227.82836454 -68.24358182 231.87300027 -71.6875 236.1875 C-75.80243661 241.31986599 -80.216646 246.11621702 -84.73413086 250.89233398 C-90.62419076 256.32235514 -90.62419076 256.32235514 -93.3125 263.25 C-91.91571395 266.53655542 -89.88296826 268.37390669 -87.25 270.75 C-86.26 271.74 -86.26 271.74 -85.25 272.75 C-81.94450566 272.63582997 -80.59623116 272.09825986 -78.25 269.73828125 C-77.59 268.85527344 -76.93 267.97226562 -76.25 267.0625 C-72.57424836 262.34180225 -68.72632555 257.91818041 -64.625 253.5625 C-61.22698306 249.94647513 -57.84494807 246.33974677 -54.625 242.5625 C-51.68729318 239.19039543 -48.65842034 235.91424104 -45.5625 232.6875 C-45.09827637 232.18516846 -44.63405273 231.68283691 -44.15576172 231.1652832 C-40.8305588 227.75919697 -40.8305588 227.75919697 -38.27734375 227.71875 C-35.5677533 229.09703878 -33.04387784 230.6468657 -30.5 232.3125 C-29.51515625 232.95316406 -28.5303125 233.59382812 -27.515625 234.25390625 C-26.76796875 234.74761719 -26.0203125 235.24132812 -25.25 235.75 C-26.03642062 249.55168185 -29.17264025 262.67737273 -32.50585938 276.04248047 C-32.68466644 276.76855499 -32.86347351 277.49462952 -33.04769897 278.2427063 C-33.54113647 280.24120741 -34.04395732 282.23738499 -34.54736328 284.23339844 C-35.20402595 287.51990613 -35.38808531 290.41154681 -35.25 293.75 C-33.16952703 294.2821441 -31.08547707 294.80031786 -29 295.3125 C-27.83984375 295.60253906 -26.6796875 295.89257812 -25.484375 296.19140625 C-22.41830322 296.72093314 -21.11969568 296.6038163 -18.25 295.75 C-17.38883253 291.01892305 -16.53456343 286.28667035 -15.68652344 281.55322266 C-15.39737829 279.94481236 -15.10638662 278.33673283 -14.81347656 276.72900391 C-14.39156095 274.41133823 -13.9764105 272.09254448 -13.5625 269.7734375 C-13.36563599 268.70432632 -13.36563599 268.70432632 -13.16479492 267.61361694 C-12.4576229 263.60897672 -12.11653762 259.8150416 -12.25 255.75 C-11.59 255.42 -10.93 255.09 -10.25 254.75 C-9.79961708 251.90051852 -9.45383981 249.1172059 -9.1875 246.25 C-8.36828559 237.86828559 -8.36828559 237.86828559 -7.25 236.75 C-1.25318593 235.57671029 4.65675749 235.6508333 10.75 235.75 C13.9201146 241.24310901 15.18437202 246.95062222 16.59765625 253.09765625 C16.8550206 254.18711044 17.11238495 255.27656464 17.37754822 256.39903259 C18.19625518 259.86857466 19.00504509 263.34032354 19.8125 266.8125 C20.62477283 270.28793091 21.43922092 273.76281357 22.25816345 277.23667908 C22.76654403 279.39484803 23.2709084 281.55396798 23.77076721 283.71412659 C24.0011821 284.69542038 24.23159698 285.67671417 24.46899414 286.68774414 C24.66868301 287.54678848 24.86837189 288.40583282 25.07411194 289.29090881 C25.78368238 291.87254697 26.711237 294.28433993 27.75 296.75 C40.30008908 296.68966303 51.8860017 291.03226009 62.6875 285.125 C63.3798877 284.75310547 64.07227539 284.38121094 64.78564453 283.99804688 C68.32680123 282.07629988 68.32680123 282.07629988 70.59375 278.8894043 C70.80661995 275.97474901 69.89861533 274.78646257 68.28515625 272.37109375 C67.73641846 271.53803711 67.18768066 270.70498047 66.62231445 269.84667969 C66.02507568 268.96915039 65.42783691 268.09162109 64.8125 267.1875 C64.21074951 266.28290039 63.60899902 265.37830078 62.98901367 264.44628906 C59.37345785 259.04262885 55.61786761 253.7639633 51.73828125 248.546875 C49.11617838 244.85841595 46.67058166 241.07291126 44.25 237.25 C43.58061401 236.20634277 43.58061401 236.20634277 42.89770508 235.14160156 C39.75 230.10774951 39.75 230.10774951 39.75 226.75 C41.94385092 224.91832744 44.09046556 223.29830186 46.4375 221.6875 C47.06333984 221.24083984 47.68917969 220.79417969 48.33398438 220.33398438 C55.21136579 215.51621666 55.21136579 215.51621666 58.75 214.75 C61.2578125 215.8046875 61.2578125 215.8046875 63.875 217.625 C64.844375 218.29015625 65.81375 218.9553125 66.8125 219.640625 C67.781875 220.33671875 68.75125 221.0328125 69.75 221.75 C70.595625 222.34296875 71.44125 222.9359375 72.3125 223.546875 C78.86709205 228.22301689 85.21498099 233.17248564 91.59399414 238.08325195 C96.51237523 241.85195382 101.48940509 245.46774848 106.75 248.75 C112.71049993 242.39562521 112.71049993 242.39562521 116.75 234.75 C115.5062083 231.0186249 114.00793801 230.10783096 110.9375 227.6875 C109.93847656 226.89085937 108.93945312 226.09421875 107.91015625 225.2734375 C107.38695801 224.85803711 106.86375977 224.44263672 106.32470703 224.01464844 C103.80482956 221.99093289 101.34445448 219.89723254 98.875 217.8125 C94.10483528 213.82392274 89.23063616 210.0059323 84.28295898 206.2409668 C80.30992723 203.20906024 76.49411401 200.05875192 72.75 196.75 C72.9816422 195.35100301 73.236338 193.95581728 73.5 192.5625 C73.70882812 191.39654297 73.70882812 191.39654297 73.921875 190.20703125 C75.06161381 186.8254477 75.99633433 185.08166428 78.75 182.75 C82.04707054 182.48055934 85.1406528 183.1371103 88.375 183.75 C90.34841782 184.07362586 92.32240598 184.39378821 94.296875 184.7109375 C95.34037109 184.88463867 96.38386719 185.05833984 97.45898438 185.23730469 C103.16007407 186.12545664 108.89100772 186.74124726 114.625 187.375 C116.76829087 187.61664086 118.91152319 187.85880171 121.0546875 188.1015625 C122.03276367 188.20887695 123.01083984 188.31619141 124.01855469 188.42675781 C125.74174411 188.63068191 127.46221111 188.86091577 129.17675781 189.12792969 C133.70759328 189.89380879 133.70759328 189.89380879 137.75 187.75 C139.47172595 182.6308576 140.03305908 177.12812243 139.75 171.75 C135.95874124 170.01844904 132.83949941 169.44794991 128.6875 169.25 C127.38683594 169.1778125 126.08617187 169.105625 124.74609375 169.03125 C123.98409668 168.99 123.22209961 168.94875 122.43701172 168.90625 C116.70459686 168.5729095 110.97770323 168.15508245 105.25 167.75 C104.03304443 167.66685547 102.81608887 167.58371094 101.56225586 167.49804688 C95.91769025 167.10152619 90.33495161 166.66987438 84.75 165.75 C81.97665205 158.35440546 81.19544316 150.61165872 81.75 142.75 C82.08 142.09 82.41 141.43 82.75 140.75 C88.27532161 139.63954779 93.86036169 139.4789925 99.48046875 139.25 C101.35351632 139.16668226 103.22656317 139.08334846 105.09960938 139 C108.02916816 138.87385972 110.95878178 138.74909851 113.88842773 138.625 C116.73176675 138.50336999 119.57485936 138.37686736 122.41796875 138.25 C123.29406296 138.21455078 124.17015717 138.17910156 125.07279968 138.14257812 C125.8907753 138.10583984 126.70875092 138.06910156 127.55151367 138.03125 C128.26764328 138.00095703 128.98377289 137.97066406 129.72160339 137.93945312 C131.81360632 137.74405914 133.72804636 137.31137068 135.75 136.75 C132.86965142 119.44047664 125.67011627 104.69382631 116.75 89.75 C116.27385254 88.94159668 115.79770508 88.13319336 115.30712891 87.30029297 C113.81916265 84.7772617 112.31860452 82.26223985 110.8125 79.75 C110.33973633 78.95343994 109.86697266 78.15687988 109.37988281 77.33618164 C108.93612305 76.6064917 108.49236328 75.87680176 108.03515625 75.125 C107.64207275 74.47273438 107.24898926 73.82046875 106.84399414 73.1484375 C106.30246704 72.45621094 106.30246704 72.45621094 105.75 71.75 C105.09 71.75 104.43 71.75 103.75 71.75 C103.22148438 72.28496094 102.69296875 72.81992188 102.1484375 73.37109375 C98.86057544 76.63218169 95.15162488 79.14725139 91.375 81.8125 C85.55020881 85.96861174 79.79865182 90.18404245 74.1875 94.625 C73.61845947 95.07206299 73.04941895 95.51912598 72.46313477 95.97973633 C69.97301969 97.94565524 67.52816441 99.94269897 65.1328125 102.0234375 C59.67816931 106.6699854 59.67816931 106.6699854 55.125 107.0625 C50.8364943 105.39474779 47.98593069 102.96625938 44.75 99.75 C45.489152 95.87185187 47.18328932 92.50088494 48.9375 89 C49.27628174 88.32187256 49.61506348 87.64374512 49.96411133 86.94506836 C54.42871058 78.19244684 59.48124721 69.77048821 64.48046875 61.31640625 C65.03138184 60.37812988 65.58229492 59.43985352 66.14990234 58.47314453 C67.19895122 56.68780868 68.25630051 54.90731852 69.32275391 53.13232422 C69.78987793 52.33455566 70.25700195 51.53678711 70.73828125 50.71484375 C71.35956909 49.67058228 71.35956909 49.67058228 71.9934082 48.60522461 C73.05462164 46.57876842 73.05462164 46.57876842 71.75 43.75 C68.74229216 42.0525965 68.74229216 42.0525965 65.1875 40.5625 C63.39119141 39.76779297 63.39119141 39.76779297 61.55859375 38.95703125 C60.63175781 38.55871094 59.70492187 38.16039062 58.75 37.75 C56.12036677 40.10462947 54.67085538 42.51531453 53.078125 45.65234375 C52.33393311 47.10290161 52.33393311 47.10290161 51.57470703 48.58276367 C51.05505371 49.60732666 50.53540039 50.63188965 50 51.6875 C46.27071534 58.94946689 42.47291795 66.09061518 38.28515625 73.09765625 C33.15399794 80.99915538 33.15399794 80.99915538 30.75 89.75 C24.81 87.77 18.87 85.79 12.75 83.75 C12.50823287 76.3425238 13.30654586 69.88483332 15 62.6875 C15.22453857 61.69177979 15.44907715 60.69605957 15.68041992 59.67016602 C16.73966818 54.99996327 17.84359586 50.34127321 18.97265625 45.6875 C19.15731445 44.92187744 19.34197266 44.15625488 19.53222656 43.36743164 C19.87431486 41.96112116 20.22341572 40.55648917 20.58105469 39.15405273 C21.53726886 35.2700539 21.91626394 31.74649252 21.75 27.75 C19.62607494 27.0799166 17.50082476 26.41403203 15.375 25.75 C14.19164062 25.37875 13.00828125 25.0075 11.7890625 24.625 C8.95676561 23.65777394 8.95676561 23.65777394 6.75 23.75 Z " fill="#FFFFFF" transform="translate(734.25,90.25)"/>
<path d="M0 0 C37.15040548 -1.5704057 73.16190758 12.76315274 100.49072266 37.71630859 C113.1126839 49.59950523 121.7974348 63.5000888 128.95898438 79.09863281 C129.43513184 80.11183594 129.43513184 80.11183594 129.92089844 81.14550781 C144.77520659 113.07846154 143.21078429 148.56190494 131.92358398 181.39160156 C126.77293149 195.49738577 119.55015794 208.54219251 109.95898438 220.09863281 C109.27449219 220.92363281 108.59 221.74863281 107.88476562 222.59863281 C81.28338308 253.28118865 46.87754266 268.4257106 6.64648438 271.84863281 C4.75254758 271.96751044 2.85598286 272.0483812 0.95898438 272.09863281 C0.29705078 272.11837158 -0.36488281 272.13811035 -1.046875 272.15844727 C-6.78031278 272.2556348 -12.2577062 271.67705042 -17.91601562 270.78613281 C-18.79298096 270.65078125 -19.66994629 270.51542969 -20.57348633 270.37597656 C-26.86725447 269.36850724 -32.9753439 268.08075852 -39.04101562 266.09863281 C-39.68014893 265.90744873 -40.31928223 265.71626465 -40.9777832 265.51928711 C-47.12805772 263.60675537 -52.67816206 260.93628921 -58.35351562 257.91113281 C-59.27849854 257.41991943 -60.20348145 256.92870605 -61.15649414 256.42260742 C-93.10081638 239.25242913 -115.88332715 213.98981477 -126.62963867 179.16503906 C-136.67549025 144.78271437 -133.69673557 106.64045994 -116.82714844 74.80810547 C-112.00511527 66.34028294 -106.41020831 58.47415795 -100.04101562 51.09863281 C-99.31398438 50.23882813 -98.58695313 49.37902344 -97.83789062 48.49316406 C-93.7954733 43.80366915 -93.7954733 43.80366915 -92.04101562 42.09863281 C-91.38101563 42.09863281 -90.72101562 42.09863281 -90.04101562 42.09863281 C-89.71101562 41.10863281 -89.38101563 40.11863281 -89.04101562 39.09863281 C-87.66503906 37.78344727 -87.66503906 37.78344727 -85.90039062 36.46191406 C-85.24876953 35.97110352 -84.59714844 35.48029297 -83.92578125 34.97460938 C-83.22130859 34.45866211 -82.51683594 33.94271484 -81.79101562 33.41113281 C-81.06591797 32.87584961 -80.34082031 32.34056641 -79.59375 31.7890625 C-56.49109257 14.92351408 -28.96154952 1.39957727 0 0 Z M-73.27539062 70.55566406 C-89.45840127 89.96900435 -98.48832193 114.0968717 -98.35351562 139.34863281 C-98.34860107 140.44473877 -98.34368652 141.54084473 -98.33862305 142.67016602 C-97.96997018 168.2811421 -88.02159257 189.48530809 -71.04101562 208.09863281 C-70.39648438 208.83726562 -69.75195312 209.57589844 -69.08789062 210.33691406 C-56.73446146 223.73769918 -37.62982592 233.02932871 -20.04101562 237.09863281 C-19.31760986 237.2677417 -18.5942041 237.43685059 -17.84887695 237.61108398 C10.09629318 242.46340159 40.28727195 236.41868892 63.83398438 220.78613281 C70.33647721 216.03021119 76.16954681 210.68011644 81.95898438 205.09863281 C82.71179688 204.40898438 83.46460938 203.71933594 84.24023438 203.00878906 C100.36569122 187.84465752 106.7627513 165.24022971 107.90429688 143.69775391 C108.54543506 113.22651697 97.62429623 84.75630994 76.83032227 62.58520508 C70.27163624 55.79537593 63.12393998 50.78502745 54.95898438 46.09863281 C54.10691406 45.6075 53.25484375 45.11636719 52.37695312 44.61035156 C9.53627321 21.66252468 -41.73942788 35.87713161 -73.27539062 70.55566406 Z " fill="#FFFFFF" transform="translate(695.041015625,504.9013671875)"/>
<path d="M0 0 C6.40278388 2.96844242 10.49968712 9.50328539 13 16 C15.83891169 49.30723152 -16.87508782 96.20586656 -32.58642578 124.45507812 C-34.97269771 128.75119186 -37.33145239 133.06225505 -39.6875 137.375 C-40.17065674 138.25824951 -40.65381348 139.14149902 -41.15161133 140.05151367 C-45.2775366 147.61891251 -49.30855169 155.23494688 -53.33633423 162.85479736 C-58.77341837 173.13828944 -64.25596092 183.38326192 -70 193.5 C-70.79108154 194.89351685 -70.79108154 194.89351685 -71.59814453 196.31518555 C-73.88172043 200.32321998 -76.1831738 204.31938254 -78.51953125 208.296875 C-83.79075857 217.33609446 -87.95739081 226.57236402 -91.87841797 236.26708984 C-93.09840435 239.23977759 -94.35915711 242.19276487 -95.62890625 245.14453125 C-111.49081646 282.02486389 -126.46602592 321.66395106 -130 362 C-130.66 362 -131.32 362 -132 362 C-131.67 362.66 -131.34 363.32 -131 364 C-130.9513543 365.33505407 -130.96303932 366.67262294 -131.0078125 368.0078125 C-131.26752444 379.12700499 -130.69634501 389.17945025 -128 400 C-127.74476563 401.05574219 -127.48953125 402.11148437 -127.2265625 403.19921875 C-122.24534649 420.67917401 -107.39304368 435.05993533 -92 444 C-86.76312519 446.86683573 -81.40880225 449.47531587 -76 452 C-75.32404785 452.31646484 -74.6480957 452.63292969 -73.95166016 452.95898438 C-54.96008359 461.69263781 -35.60684164 465.16464611 -14.8125 465.25 C-13.60658203 465.270625 -12.40066406 465.29125 -11.15820312 465.3125 C8.03001872 465.3921605 26.55610551 461.47253613 45.125 457 C84.19075024 447.62696863 124.76095697 441.33497866 160.8125 463.375 C176.06364922 473.61934229 176.06364922 473.61934229 180 481 C176.23705364 482.25431545 173.51634183 481.46242451 169.75 480.6875 C150.27836961 477.01439952 130.40226428 476.52437514 110.63916016 476.08349609 C108.31309509 476.03012737 105.98719111 475.96874321 103.66162109 475.89697266 C82.57302041 475.25929739 62.65229616 478.52464319 42.01525879 482.46334839 C-13.12962627 492.98717678 -70.57756335 498.20181993 -119.99609375 466.05078125 C-141.96233551 450.41081712 -153.39749651 429.40785778 -159.54418945 403.72631836 C-167.21424742 357.84975846 -151.07197138 310.26443899 -133 269 C-132.55156738 267.97390625 -132.10313477 266.9478125 -131.64111328 265.890625 C-127.41602528 256.27243721 -123.1729617 246.83506209 -117.68359375 237.859375 C-115.76876045 234.60726833 -114.09368759 231.26285136 -112.4375 227.875 C-106.63895831 216.06864595 -100.27716113 204.55636063 -94 193 C-93.4838916 192.04786621 -92.9677832 191.09573242 -92.43603516 190.11474609 C-86.73223827 179.59407484 -80.96957812 169.10615979 -75.16622925 158.6401062 C-74.22291893 156.93887689 -73.28050923 155.23714829 -72.33813477 153.53540039 C-69.42076844 148.28509323 -66.4662686 143.06290207 -63.42578125 137.8828125 C-60.16336362 132.3176729 -57.05856318 126.67917263 -54 121 C-52.99761553 119.14962055 -51.99500833 117.29936175 -50.9921875 115.44921875 C-49.38227417 112.47485895 -47.77370191 109.49979293 -46.16748047 106.5234375 C-43.48287186 101.55522195 -40.78542469 96.59708866 -38.015625 91.67578125 C-29.14745067 75.85097363 -21.48823216 59.51085195 -14 43 C-13.26112549 41.37312256 -13.26112549 41.37312256 -12.50732422 39.71337891 C-8.12622725 29.99286935 -3.96528084 20.53961097 -2 10 C-1.79890625 9.02933594 -1.5978125 8.05867188 -1.390625 7.05859375 C-0.90697064 4.70894859 -0.44333821 2.35751611 0 0 Z " fill="#FFFFFF" transform="translate(334,271)"/>
<path d="M0 0 C4.85025905 2.69820041 7.81967439 5.96526668 10.875 10.5 C11.30063232 11.10932373 11.72626465 11.71864746 12.16479492 12.34643555 C14.26427198 15.3708269 16.28913622 18.43239868 18.24609375 21.55078125 C19.26896484 23.16533203 19.26896484 23.16533203 20.3125 24.8125 C20.90675781 25.78832031 21.50101563 26.76414062 22.11328125 27.76953125 C23.82351056 30.14853514 23.82351056 30.14853514 26.390625 30.94140625 C29.52061914 31.01169055 31.53661321 30.29179219 34.4375 29.125 C42.9164681 26.10652928 52.50927146 24.23413968 61 28 C63.77982686 30.10452782 64.84567253 31.18218595 65.49609375 34.62890625 C65.29971999 44.46068562 64.0782608 53.13843087 57.890625 61.05078125 C56.54852822 63.98808955 57.21186039 65.91449688 58 69 C59.69954851 71.30261838 59.69954851 71.30261838 61.96484375 73.27734375 C62.76470703 74.03853516 63.56457031 74.79972656 64.38867188 75.58398438 C66.08383519 77.14925012 67.77914699 78.71435508 69.47460938 80.27929688 C77.25040792 87.67975518 77.25040792 87.67975518 78 94 C76.38990141 99.03155808 73.45880985 102.29373881 69 105 C62.52918748 108.16248488 56.21033793 111.07672502 49 112 C49.18699463 112.52843506 49.37398926 113.05687012 49.56665039 113.60131836 C50.41767203 116.04052354 51.24009056 118.48850693 52.0625 120.9375 C52.35705078 121.76830078 52.65160156 122.59910156 52.95507812 123.45507812 C54.86070311 129.21679131 55.5035978 134.05128141 54 140 C51.97027573 143.66911696 50.61262815 144.74081117 46.75 146.375 C37.1904417 147.96825972 30.43250171 144.20339643 22 140 C21.87625 140.73863281 21.7525 141.47726562 21.625 142.23828125 C19.42666061 151.95219344 11.57347201 160.56965353 4 166.6875 C-0.28565376 168.56247352 -3.59067948 168.57647213 -8 167 C-10.6233081 164.65576723 -12.07714207 162.87981513 -14 160 C-14.39928711 159.41154297 -14.79857422 158.82308594 -15.20996094 158.21679688 C-17.47750521 154.8739393 -19.71685528 151.5146837 -21.92578125 148.1328125 C-23.68732569 145.24626584 -23.68732569 145.24626584 -25 144 C-30.91582119 143.24478878 -34.50856023 144.95670022 -39.66796875 147.80859375 C-44.8463198 150.45414998 -50.27971003 150.6416123 -56 150 C-59.76266417 148.22128603 -61.51796464 146.66862969 -63.9375 143.3125 C-65.68461228 137.86562055 -64.65688765 133.13488485 -63 127.75 C-61.53011914 122.23794676 -61.32457385 116.68004239 -61 111 C-61.556875 110.82984375 -62.11375 110.6596875 -62.6875 110.484375 C-71.38658228 107.7218286 -79.50414032 104.70024296 -85 97 C-86.94364561 92.57280722 -87.42121518 89.31320027 -85.9375 84.6875 C-82.00511567 79.23290238 -76.1983959 76.1636292 -70.5 72.8125 C-69.38044922 72.13670898 -69.38044922 72.13670898 -68.23828125 71.44726562 C-64.5279033 69.25715758 -61.37364234 67.44257095 -57 67 C-57.74443359 66.05253906 -57.74443359 66.05253906 -58.50390625 65.0859375 C-71.65115969 47.77247662 -71.65115969 47.77247662 -72.1640625 39.28515625 C-71.51634506 35.61272056 -70.06868952 33.11219289 -68.125 29.9375 C-60.04162924 24.92581013 -47.86652179 28.43464757 -39 30 C-37.66219455 30.3149055 -36.32616582 30.63920489 -35 31 C-31.61011922 26.66641615 -28.52924555 22.2766106 -25.6875 17.5625 C-19.83449523 8.25207869 -12.00405403 -1.50050675 0 0 Z " fill="#FFFFFF" transform="translate(704,560)"/>
<path d="M0 0 C4.60283204 1.16669007 8.20523056 4.14001382 12 6.875 C21.60102345 13.62801344 31.72004276 19.35481433 42 25 C42.64146973 25.36109863 43.28293945 25.72219727 43.94384766 26.09423828 C60.2151026 35.22760975 79.68515312 40.89599723 98.25 42.5 C102 43 102 43 103.796875 44.15625 C105 46 105 46 104.74462891 48.68041992 C103.92838307 52.31927063 102.72224551 55.5133918 101.2890625 58.95703125 C101.00935104 59.63613556 100.72963959 60.31523987 100.44145203 61.0149231 C99.83022611 62.49873345 99.21647055 63.98150371 98.60049438 65.46334839 C96.8906558 69.58092213 95.20410224 73.70797347 93.51953125 77.8359375 C93.1579039 78.72190109 92.79627655 79.60786469 92.4236908 80.52067566 C87.91634265 91.60609672 83.6187405 102.77281052 79.3125 113.9375 C73.54199658 128.88870288 67.73685738 143.82153299 61.73950195 158.68334961 C61.31241943 159.74175049 60.88533691 160.80015137 60.4453125 161.890625 C60.03958008 162.89158203 59.63384766 163.89253906 59.21582031 164.92382812 C58.35396578 167.10442393 57.5230031 169.29734463 56.71386719 171.49804688 C56.29008789 172.64853516 55.86630859 173.79902344 55.4296875 174.984375 C55.05827637 176.01788086 54.68686523 177.05138672 54.30419922 178.11621094 C52.91299794 181.19237521 51.20877009 183.46151918 49 186 C40.51157776 182.17474534 36.24353934 173.31558952 33 165 C29.76016508 154.50797986 28.46326599 143.57393188 27.07348633 132.71948242 C25.63492119 120.10682199 25.63492119 120.10682199 20 109 C17.10135859 107.22002404 15.12594209 106.72854889 11.75 107.0625 C11.04359375 107.11535156 10.3371875 107.16820312 9.609375 107.22265625 C-0.2295778 110.15372153 -6.960129 118.6797524 -13.875 125.8125 C-48.41179273 161.33535037 -48.41179273 161.33535037 -66.34375 162.15234375 C-67.2203125 162.10207031 -68.096875 162.05179688 -69 162 C-70.15234375 160.4296875 -70.15234375 160.4296875 -71 158 C-70.32326195 155.52975438 -69.58335647 153.44770175 -68.5625 151.125 C-68.28390137 150.46153564 -68.00530273 149.79807129 -67.71826172 149.11450195 C-65.32745014 143.51888654 -62.60581165 138.10211272 -59.83203125 132.6875 C-57.84369706 128.75112853 -56.07548749 124.72869211 -54.3125 120.6875 C-51.04242554 113.2080397 -47.55540644 105.84776616 -44 98.5 C-32.10307461 73.8330477 -21.47700422 48.56069989 -11.46875 23.0703125 C-11.055112 22.02012939 -11.055112 22.02012939 -10.63311768 20.94873047 C-9.33184139 17.64223269 -8.04110265 14.33230949 -6.76855469 11.01464844 C-6.31383789 9.85223633 -5.85912109 8.68982422 -5.390625 7.4921875 C-4.99907227 6.47495605 -4.60751953 5.45772461 -4.20410156 4.40966797 C-3 2 -3 2 0 0 Z " fill="#FFFFFF" transform="translate(580,748)"/>
<path d="M0 0 C2.72170925 2.40408523 4.08610719 4.8739914 5.64453125 8.13671875 C6.14903809 9.17650879 6.65354492 10.21629883 7.17333984 11.28759766 C7.98472412 12.97054932 7.98472412 12.97054932 8.8125 14.6875 C18.47149854 34.33481205 29.811575 52.89259382 41.484375 71.3984375 C44.0840318 75.52410122 46.63211481 79.67617746 49.14599609 83.85449219 C54.54961226 92.83123678 60.3128575 101.53952201 66.15234375 110.23803711 C71.61554354 118.38648317 76.89739658 126.62181229 82 135 C82.41926758 135.68513672 82.83853516 136.37027344 83.27050781 137.07617188 C84.53916606 139.15215809 85.80219837 141.23143164 87.0625 143.3125 C87.445271 143.94164307 87.82804199 144.57078613 88.22241211 145.21899414 C89.77167545 147.79825245 91.04477654 150.13432962 92 153 C90 155 90 155 87.99609375 155.15234375 C63.49660835 153.09513505 41.40160195 140.21461143 22.88037109 124.7175293 C18.20669095 120.88219316 13.08641489 117.57543591 6.8125 117.5625 C3.05904947 117.70985043 3.05904947 117.70985043 0.5625 119.5625 C-1.82629681 123.28902302 -2.46261271 126.67707028 -1.58789062 131.06933594 C-1.40419922 131.82504883 -1.22050781 132.58076172 -1.03125 133.359375 C3.0127248 152.81100048 1.82789345 176.83742059 -9 194 C-9.66 194.66 -10.32 195.32 -11 196 C-12.97485352 195.84301758 -12.97485352 195.84301758 -15 195 C-16.28881836 193.4753418 -16.28881836 193.4753418 -17.40234375 191.51171875 C-17.82499512 190.78645996 -18.24764648 190.06120117 -18.68310547 189.31396484 C-19.11768066 188.55035645 -19.55225586 187.78674805 -20 187 C-20.89356492 185.52517455 -21.79076746 184.05254754 -22.69140625 182.58203125 C-28.95455685 172.19933227 -35.05438203 161.73458199 -41.04296875 151.19140625 C-44.37831215 145.32177484 -47.7673951 139.4836734 -51.17211914 133.65405273 C-57.16892812 123.34503632 -62.73394683 112.79660119 -68.33129883 102.26733398 C-69.43078914 100.20011749 -70.53275392 98.13423257 -71.63476562 96.06835938 C-73.42345379 92.71103931 -75.19545534 89.34528065 -76.95965576 85.97503662 C-78.00427574 83.99188275 -79.06649171 82.01881182 -80.12939453 80.04541016 C-80.78629933 78.79763059 -81.44242291 77.54943934 -82.09765625 76.30078125 C-82.68168213 75.20548096 -83.26570801 74.11018066 -83.86743164 72.98168945 C-85.10923215 69.71242676 -85.22479746 68.24787466 -84 65 C-81.62109375 63.48046875 -81.62109375 63.48046875 -78.4375 62.1875 C-77.261875 61.68476562 -76.08625 61.18203125 -74.875 60.6640625 C-74.24464844 60.39754883 -73.61429688 60.13103516 -72.96484375 59.85644531 C-42.34712579 46.51065076 -19.3456487 27.12006827 0 0 Z " fill="#FFFFFF" transform="translate(823,722)"/>
<path d="M0 0 C9.58162068 7.59658373 15.54397569 16.93282985 17.28515625 29.12109375 C18.73364044 42.98991369 16.8350456 54.31681895 8.125 65.25 C0.88957323 73.05125881 -11.59554703 79.43753707 -22.23828125 80.5859375 C-30.02615785 80.68102757 -36.91442783 80.33911336 -42.75 74.671875 C-45.84959918 70.76215331 -47.03944415 67.29779497 -47.125 62.25 C-46.61996533 58.87319955 -45.9324771 55.56666213 -45.125 52.25 C-42.125 52.25 -42.125 52.25 -40.44140625 53.7109375 C-39.86261719 54.34257813 -39.28382813 54.97421875 -38.6875 55.625 C-35.78703504 58.77852566 -33.41786045 61.04656691 -29.01171875 61.4375 C-23.73413402 60.98754606 -20.46806355 59.76304263 -16.62890625 56.06640625 C-11.47847827 49.84575947 -9.71078222 42.86474377 -9.76953125 34.921875 C-10.45156737 29.79536176 -13.10816337 25.21960392 -16.79296875 21.62109375 C-18.125 20.25 -18.125 20.25 -18.125 18.25 C-18.99125 17.96125 -19.8575 17.6725 -20.75 17.375 C-22.82206588 16.68431137 -24.88685403 15.97065352 -26.9375 15.21875 C-37.06424117 12.14101494 -45.64178491 14.09517734 -54.70214844 18.91821289 C-59.53907187 21.67884215 -63.25983271 24.38498441 -66.125 29.25 C-66.65351563 30.10851562 -67.18203125 30.96703125 -67.7265625 31.8515625 C-73.98708703 42.62203836 -75.99447826 53.02574799 -73.47265625 65.46875 C-68.99651897 80.37640033 -58.53290488 90.92497294 -45.125 98.25 C-16.95673414 111.73114253 13.06777805 100.94022767 40.68359375 91.24609375 C41.54734619 90.94106934 42.41109863 90.63604492 43.30102539 90.32177734 C63.06966049 83.3613422 85.90391963 79.20914316 106.87084961 82.03686523 C109.14042693 82.325505 109.14042693 82.325505 112.5 82.125 C134.18936469 81.91025381 157.07588233 92.94433126 172.875 107.25 C174.21111328 108.42949219 174.21111328 108.42949219 175.57421875 109.6328125 C183.49037419 117.03005677 192.54735047 127.37919122 194.875 138.25 C190.875 138.25 190.875 138.25 188.5625 136.125 C187.675625 135.17625 186.78875 134.2275 185.875 133.25 C167.63202974 115.39935168 139.42560527 108.4802201 114.7109375 106.57421875 C110.875 106.25 110.875 106.25 108.4375 105.6953125 C104.44703972 105.00184837 100.53427768 105.24909415 96.5 105.4375 C95.59185547 105.47939453 94.68371094 105.52128906 93.74804688 105.56445312 C82.97645537 106.18857397 72.44363434 108.15563283 61.875 110.25 C61.04170166 110.40960205 60.20840332 110.5692041 59.34985352 110.73364258 C57.02859218 111.21795428 54.77512988 111.79672931 52.49609375 112.44921875 C51.25243042 112.80439575 51.25243042 112.80439575 49.98364258 113.16674805 C48.661427 113.54827026 48.661427 113.54827026 47.3125 113.9375 C46.39299561 114.20151611 45.47349121 114.46553223 44.52612305 114.73754883 C36.49602402 117.05211887 28.48818856 119.43885648 20.48828125 121.85546875 C19.35737061 122.1949353 19.35737061 122.1949353 18.20361328 122.54125977 C16.58901255 123.03268207 14.97820182 123.53666419 13.37060547 124.05053711 C8.041265 125.72700557 2.93335595 126.88680927 -2.625 127.4375 C-3.39126709 127.51572998 -4.15753418 127.59395996 -4.94702148 127.67456055 C-29.83157035 130.00280576 -56.83286232 127.34527189 -76.9140625 110.9765625 C-79.3778786 108.78892637 -81.76711674 106.55090838 -84.125 104.25 C-84.970625 103.445625 -85.81625 102.64125 -86.6875 101.8125 C-87.491875 100.966875 -88.29625 100.12125 -89.125 99.25 C-89.81335938 98.53328125 -90.50171875 97.8165625 -91.2109375 97.078125 C-99.83399581 87.85345797 -108.35515881 76.43810001 -108.125 63.25 C-108.455 62.92 -108.785 62.59 -109.125 62.25 C-110.11659499 45.33567781 -106.93223754 32.84308004 -96.1875 19.25 C-86.16519451 8.53418677 -73.78296153 1.24856939 -60.125 -3.75 C-58.98289062 -4.17023437 -57.84078125 -4.59046875 -56.6640625 -5.0234375 C-38.58765965 -11.31670368 -16.11168503 -11.35842929 0 0 Z " fill="#FFFFFF" transform="translate(340.125,585.75)"/>
<path d="M0 0 C0.76554199 0.00491455 1.53108398 0.0098291 2.31982422 0.01489258 C22.32346378 0.41316802 40.41200671 6.9184161 58.78393555 14.27783203 C59.72664307 14.65536621 60.66935059 15.03290039 61.640625 15.421875 C62.48141602 15.76186523 63.32220703 16.10185547 64.18847656 16.45214844 C76.54485549 21.05120625 91.03206662 17.85848277 103.546875 15.2890625 C104.86824463 15.01787598 104.86824463 15.01787598 106.21630859 14.74121094 C107.94511506 14.38116199 109.672154 14.0124811 111.39697266 13.63378906 C120.18796949 11.77175209 127.32402909 12.25619592 136.0625 14.1875 C142.20397439 15.49284659 148.26068156 16.60421824 154.5 17.3125 C163.73033998 18.46754798 172.97631597 20.25986862 179.5 27.3125 C180.5625 29.25 180.5625 29.25 180.5 31.3125 C178.36861596 37.70665213 173.36234187 42.14485916 167.5859375 45.38671875 C165.5701648 46.23699324 163.62877912 46.80933403 161.5 47.3125 C160.77039063 47.50070312 160.04078125 47.68890625 159.2890625 47.8828125 C147.58485842 49.91351037 134.71768631 44.94772683 123.625 41.5 C111.90914195 38.31356455 99.74613633 40.61104648 88.12890625 43.08349609 C85.87284282 43.56295845 83.61303777 44.01948125 81.3515625 44.47265625 C73.47555167 46.08070844 65.88863215 48.06303255 58.22558594 50.51855469 C43.24332533 54.88278897 29.77222522 47.59144247 16.625 41.27734375 C0.14321134 33.38171709 -12.6446184 29.88822709 -30.5 35.3125 C-35.33406253 37.14525988 -40.07557166 39.18148057 -44.8125 41.25 C-62.45579446 48.95181306 -82.65269138 56.72782854 -101.8125 50.1875 C-109.96530368 46.91353947 -116.77579119 42.81537042 -123.5 37.1875 C-130.99573354 31.06948696 -138.41785574 29.00651674 -147.93359375 27.90234375 C-150.77503454 27.2492881 -151.8426572 26.69140701 -153.5 24.3125 C-153.37598045 17.73946392 -150.82967005 13.86057662 -146.5 9.125 C-137.36686818 3.60706619 -128.60650427 3.98077897 -118.5 6.3125 C-114.18796471 7.75443097 -110.04056286 9.49461097 -105.875 11.3125 C-81.45719407 21.8895199 -60.36284282 16.67858518 -36.1875 8.25 C-12.13403327 -0.09568552 -12.13403327 -0.09568552 0 0 Z " fill="#FFFFFF" transform="translate(483.5,403.6875)"/>
<path d="M0 0 C12.29038841 10.6478941 18.70301677 23.16691724 20.9375 39.25 C21.80299312 54.47249662 15.81136763 69.8267306 6.05078125 81.2890625 C-4.27919579 92.1264058 -18.02230441 97.39013857 -32.8828125 98.0078125 C-45.64480724 97.97582755 -58.30742938 96.99076022 -68 88 C-68.81339844 87.26523437 -69.62679687 86.53046875 -70.46484375 85.7734375 C-81.33034854 75.47980139 -90.22657834 61.85913215 -91.22265625 46.5859375 C-91.57611073 31.49496784 -88.32238535 18.56124464 -77.90307617 7.31445312 C-56.85531385 -14.23436633 -24.12140456 -18.81669733 0 0 Z " fill="#FFFFFF" transform="translate(772,208)"/>
<path d="M0 0 C5.50881596 1.89682351 11.00629388 3.62520972 16.66430664 5.02099609 C17.90180664 5.32908203 19.13930664 5.63716797 20.41430664 5.95458984 C31.83356014 7.96527021 40.83596335 6.0173178 51.47680664 1.77099609 C70.39531872 -5.33165226 93.61768291 -11.25138089 113.66430664 -4.41650391 C118.7022997 -2.02411206 123.17870464 1.1983839 126.66430664 5.58349609 C126.50390625 7.59521484 126.50390625 7.59521484 125.66430664 9.58349609 C120.5245116 13.83779874 114.94724804 13.97844873 108.60180664 13.58349609 C96.66809891 13.22599724 86.63219438 15.94252085 75.83227539 21.09521484 C53.66876872 31.50741712 30.71127736 38.92903621 6.53930664 30.77099609 C2.44104889 29.07341792 -1.38013472 26.97285716 -5.21459961 24.75146484 C-14.0039011 19.91168373 -23.98873545 18.24059854 -33.84350586 20.32568359 C-43.03635773 23.20465448 -51.67860579 26.82644075 -60.35766602 31.01660156 C-66.56229812 33.96765473 -72.67741465 35.92708607 -79.33569336 37.58349609 C-80.55256836 37.95474609 -81.76944336 38.32599609 -83.02319336 38.70849609 C-103.71255943 44.17361166 -124.70823296 39.20524031 -144.02514648 31.50195312 C-147.73697093 30.02647938 -151.47355564 28.6182859 -155.21069336 27.20849609 C-155.8586084 26.95801514 -156.50652344 26.70753418 -157.17407227 26.44946289 C-162.75812681 24.320829 -167.62348693 23.46962648 -173.58959961 23.37255859 C-174.77360352 23.34419922 -175.95760742 23.31583984 -177.17749023 23.28662109 C-179.66171208 23.23445896 -182.14611249 23.19021156 -184.63061523 23.15380859 C-185.81333008 23.12287109 -186.99604492 23.09193359 -188.21459961 23.06005859 C-189.29298096 23.04023926 -190.3713623 23.02041992 -191.48242188 23 C-194.67397097 22.5341163 -196.09031104 21.87853879 -198.33569336 19.58349609 C-198.80764208 15.94274879 -198.7139096 13.47341666 -197.27319336 10.08349609 C-188.773945 -0.88327598 -180.07294825 -5.43002656 -166.33569336 -7.41650391 C-153.6896636 -8.83507359 -142.70166911 -4.42091917 -131.88061523 1.64428711 C-117.82786374 9.40729902 -104.65354009 10.99263232 -89.33569336 6.58349609 C-84.87814411 4.92686783 -80.54737642 3.03216059 -76.21069336 1.08349609 C-49.32651131 -10.91098513 -27.36029227 -9.46902712 0 0 Z " fill="#FFFFFF" transform="translate(489.335693359375,498.41650390625)"/>
<path d="M0 0 C8.91109193 7.50286238 17.52861705 12.947712 28.76953125 15.94140625 C44.39723636 20.23089904 44.39723636 20.23089904 49 27.9375 C49.5625 31.1875 49.5625 31.1875 48 33.9375 C36.73826079 41.08744802 20.74125396 40.29494498 8.05078125 38.32421875 C0.14010031 36.15808537 -5.68649682 32.04055223 -12 26.9375 C-13.69512717 25.61867595 -15.39749632 24.30968993 -17.1015625 23.00244141 C-18.72593151 21.75403223 -20.34173766 20.49450466 -21.95703125 19.234375 C-30.68402008 12.64712284 -37.18390965 9.70292239 -48.1875 9.5 C-48.84532471 9.47776367 -49.50314941 9.45552734 -50.1809082 9.43261719 C-61.98719921 9.48324571 -72.83718451 14.47773796 -83.13891602 19.76724243 C-124.82152101 41.09442707 -124.82152101 41.09442707 -146.296875 36.18359375 C-149.25136645 35.20769308 -152.11637776 34.10468043 -155 32.9375 C-155.92039062 32.63714844 -156.84078125 32.33679688 -157.7890625 32.02734375 C-162.90355935 30.28479394 -166.43756248 28.52294617 -169.2890625 23.80078125 C-170.54656876 20.50500934 -170.0380126 18.2347165 -169 14.9375 C-165.98585413 9.18322152 -159.91578957 6.90942986 -154 4.9375 C-148.39903185 3.92221876 -143.97681658 4.02112927 -138.3125 4.9375 C-117.53842157 7.91111109 -98.99620981 0.65945745 -80.8125 -8.6875 C-50.74957209 -23.95919283 -25.36119668 -21.52752741 0 0 Z " fill="#FFFFFF" transform="translate(540,326.0625)"/>
<path d="M0 0 C7.0420619 5.81188052 12.47835358 12.56188744 17.47705078 20.140625 C20.84711681 25.16893151 24.95523762 30.02050731 31.0625 31.5625 C39.3967099 33.05477407 48.24443702 29.03148304 55.14624023 24.57202148 C58.44182075 21.77731018 59.99369024 18.19019515 61.75 14.3125 C62.46315111 12.78267584 63.18673413 11.25766085 63.921875 9.73828125 C64.22706055 9.06837158 64.53224609 8.39846191 64.84667969 7.70825195 C66.27089056 5.59876772 67.67497562 4.95277435 70 4 C74.93989036 9.59854241 76.82987392 15.54280683 77 23 C75.60729388 33.44529587 69.45263172 42.69090785 61.41015625 49.3125 C52.24771707 55.72769243 44.11082727 57.85191008 33 57 C16.34504379 53.68039028 6.51118515 43.7809203 -3.35253906 30.73071289 C-8.35366103 24.14912053 -12.77872692 18.32936071 -21 16 C-28.31712974 15.11037936 -34.82838029 15.75325193 -41 20 C-46.98889225 25.56953874 -49.65588856 33.12925021 -50.12890625 41.19921875 C-49.77849912 46.60398323 -47.63176559 51.08173782 -44 55 C-37.53625334 59.69524565 -29.78651778 61.23419924 -22.125 62.91015625 C-19 64 -19 64 -17.5625 66.12109375 C-17.376875 66.74113281 -17.19125 67.36117187 -17 68 C-24.60556005 74.8925388 -34.12186958 76.50967453 -44.14453125 76.3203125 C-54.17808928 75.1947971 -61.42148313 67.76920519 -67.79833984 60.50585938 C-70.34102134 57.31950028 -71.89250284 53.89587655 -73 50 C-73.18820312 49.40445313 -73.37640625 48.80890625 -73.5703125 48.1953125 C-75.75439587 37.03663202 -74.49119051 24.09846583 -68.6171875 14.296875 C-60.74302449 3.11328116 -51.00839178 -6.08929594 -37.265625 -8.68359375 C-24.38768462 -10.48206473 -10.80410939 -7.17334066 0 0 Z " fill="#FFFFFF" transform="translate(403,179)"/>
<path d="M0 0 C-1.56091618 4.66501087 -4.09691898 8.22147567 -7 12.125 C-7.73150269 13.11632935 -7.73150269 13.11632935 -8.4777832 14.12768555 C-12.27544689 19.19839828 -16.35461154 23.85033257 -20.6796875 28.48046875 C-24.35697881 32.47348709 -27.6808147 36.70795004 -31 41 C-31.7415332 41.95664551 -31.7415332 41.95664551 -32.49804688 42.93261719 C-38.23502107 50.3442967 -43.96149102 57.75104025 -49.26171875 65.484375 C-50.61938779 67.44918144 -51.99623952 69.39244842 -53.39453125 71.328125 C-54.26307234 72.53121282 -55.13156106 73.73433845 -56 74.9375 C-56.42772705 75.52974365 -56.8554541 76.1219873 -57.29614258 76.73217773 C-60.57728357 81.31471015 -63.56922945 86.03215856 -66.4296875 90.890625 C-68.17157482 93.23047364 -69.18479563 94.22502801 -72 95 C-74.09375 94.27734375 -74.09375 94.27734375 -76.5 92.9375 C-88.90465916 86.84310922 -103.53571495 84.74189911 -117 82 C-116.57686476 76.75110804 -113.75178606 73.5623497 -110.625 69.5625 C-110.08842773 68.86237793 -109.55185547 68.16225586 -108.99902344 67.44091797 C-107.34261802 65.2860347 -105.6732121 63.14185034 -104 61 C-103.25024902 60.03537842 -103.25024902 60.03537842 -102.48535156 59.05126953 C-97.41917798 52.53639608 -92.28048841 46.08027691 -87.109375 39.6484375 C-85.4613872 37.57929727 -83.82790006 35.50134082 -82.203125 33.4140625 C-81.71457031 32.78757812 -81.22601562 32.16109375 -80.72265625 31.515625 C-79.7646047 30.28565961 -78.80875396 29.05397572 -77.85546875 27.8203125 C-70.78047031 18.74451275 -70.78047031 18.74451275 -64.1875 17.5078125 C-63.03958984 17.28109863 -61.89167969 17.05438477 -60.70898438 16.82080078 C-59.48501953 16.59118652 -58.26105469 16.36157227 -57 16.125 C-40.06422663 12.70969123 -24.17305554 8.2278701 -8.26757812 1.45166016 C-7.47544922 1.11827637 -6.68332031 0.78489258 -5.8671875 0.44140625 C-4.81700439 -0.01190063 -4.81700439 -0.01190063 -3.74560547 -0.47436523 C-2 -1 -2 -1 0 0 Z " fill="#FFFFFF" transform="translate(830,407)"/>
<path d="M0 0 C0.99 0.495 0.99 0.495 2 1 C0.44383213 13.86685145 -9.67390866 24.78045371 -19.25 32.91015625 C-34.64748321 43.97709731 -56.38778999 47.02124733 -74.87011719 44.62841797 C-80.71066932 43.52468322 -86.36162058 41.86459262 -92 40 C-92.70366699 39.76909668 -93.40733398 39.53819336 -94.13232422 39.30029297 C-97.32091243 38.2445143 -100.49937415 37.16230975 -103.67578125 36.0703125 C-113.03187342 33.0578927 -123.36281202 31.43400076 -133 34 C-137.77193868 34.46937102 -140.82547886 34.5180894 -144.9375 31.9375 C-147.4548412 29.86781532 -148.06894549 28.83390404 -149.375 25.6875 C-148.81845668 20.21482404 -146.01998272 17.56548175 -142 14 C-139.59173538 12.32895924 -137.6180713 11.20618285 -135 10 C-133.4840625 9.22269531 -133.4840625 9.22269531 -131.9375 8.4296875 C-111.81803739 -1.22585817 -92.03767793 7.07886544 -72.26489258 13.91381836 C-71.15267334 14.29675049 -70.0404541 14.67968262 -68.89453125 15.07421875 C-67.90300049 15.42057373 -66.91146973 15.76692871 -65.88989258 16.1237793 C-45.64870941 22.26094297 -24.13494066 13.02947727 -6.265625 3.76953125 C-2.98672724 2.05708923 -2.98672724 2.05708923 0 0 Z " fill="#FFFFFF" transform="translate(534,588)"/>
</svg>
